<svg xmlns="http://www.w3.org/2000/svg" viewBox="0 0 468.87 468.87"><defs><style>.cls-1{fill:#078ca9;}.cls-2{fill:#43bdde;}.cls-3{fill:#96cfc4;}.cls-4{fill:#6ebb83;}.cls-5{fill:#009399;}.cls-6{fill:#009bc0;}.cls-7{fill:#42bfef;}.cls-8{fill:#085da3;}.cls-9{fill:#69c7ea;}.cls-10{fill:#137cc0;}.cls-11{fill:#1eb3b2;}.cls-12{fill:#8a3b8e;}.cls-13{fill:#02869f;}.cls-14{fill:#35b3a1;}.cls-15{fill:#009ee2;}.cls-16{fill:#68c3cc;}.cls-17{fill:#045a7e;}.cls-18{fill:#306eb5;}.cls-19{fill:none;stroke:#fff;stroke-miterlimit:10;stroke-width:0.75px;}</style></defs><title>cheminFichier 3</title><g id="Calque_2" data-name="Calque 2"><g id="Calque_1-2" data-name="Calque 1"><polygon class="cls-1" points="324.46 198.97 349.25 168.9 333.5 130.67 292.96 122.49 268.17 152.56 283.93 190.79 324.46 198.97"/><polygon class="cls-2" points="141.14 199.55 116.36 169.49 132.11 131.25 172.65 123.08 197.43 153.14 181.68 191.38 141.14 199.55"/><polygon class="cls-3" points="232.86 180.24 279.37 139.33 186.27 140.39 232.86 180.24"/><polygon class="cls-4" points="282.52 328.74 235.06 357.41 186.98 329.81 186.35 273.55 233.8 244.88 281.89 272.48 282.52 328.74"/><polygon class="cls-5" points="336.79 281.66 282.52 328.74 225.15 282.91 224.08 187.61 279.37 139.33 335.72 186.35 336.79 281.66"/><polygon class="cls-6" points="224.78 250.33 225.15 282.91 281.1 329.6 282.52 328.74 281.89 272.48 233.8 244.88 224.78 250.33"/><polygon class="cls-7" points="243.69 282.7 188.87 330.9 186.99 329.8 132.05 283.95 130.98 188.65 186.26 140.37 242.62 187.4 243.69 282.7"/><polygon class="cls-8" points="234.43 322.73 266.37 290.36 202.5 290.36 234.43 322.73"/><polygon class="cls-9" points="242.62 187.4 233.26 179.59 224.08 187.61 225.15 282.91 234.51 290.72 243.69 282.7 242.62 187.4"/><polygon class="cls-10" points="363.77 233.55 335.72 186.35 336.79 281.66 363.77 233.55"/><polygon class="cls-11" points="104.11 236.61 131.25 188.36 132.32 284.23 104.11 236.61"/><circle class="cls-12" cx="187.36" cy="233.9" r="6.07"/><circle class="cls-12" cx="278.71" cy="233.9" r="6.07"/><polygon class="cls-13" points="188.87 330.9 243.69 282.7 243.32 250.35 233.8 244.88 186.35 273.55 186.98 329.79 187.06 329.86 188.87 330.9"/><polygon class="cls-14" points="233.8 244.88 224.78 250.33 225.15 282.91 234.51 290.72 243.69 282.7 243.32 250.35 233.8 244.88"/><polygon class="cls-15" points="188.32 142.09 186.26 140.37 131.66 188.05 141.14 199.55 181.68 191.38 197.43 153.14 188.32 142.09"/><polygon class="cls-16" points="278.34 140.22 268.17 152.56 283.93 190.79 324.46 198.97 335.21 185.93 279.37 139.33 278.34 140.22"/><polygon class="cls-17" points="202.5 290.36 217.89 305.8 235.77 290.36 202.5 290.36"/><polygon class="cls-18" points="251.79 305.14 266.37 290.36 234.07 290.36 251.79 305.14"/><polygon class="cls-19" points="437.64 353.53 233.35 468.43 31.48 349.33 33.89 115.33 238.19 0.43 440.06 119.53 437.64 353.53"/><polygon class="cls-19" points="119.53 440.69 0.43 238.82 115.34 34.52 349.34 32.11 468.43 233.99 353.53 438.28 119.53 440.69"/></g></g></svg>