<svg id="Слой_2" data-name="Слой 2" xmlns="http://www.w3.org/2000/svg" viewBox="0 0 1584.73 924.7"><title>bear</title><path d="M1482.63,503.6c-2.3-.3-4-.6-6.1-.7a77.69,77.69,0,0,1,12.2,16.4c-3.7,2.4-11.1,1-15.2.1-.8,3.7,2.9,5.3,5.7,6.9-2.5-.6-5.5-1-7.8-1.7,1.6,5.8,7,7.5,11.9,10.2-3.2,4.4-7.7,2.5-11.8,1.2,4.5,8.6,22.3,5.4,25.6,13.1a94.18,94.18,0,0,1-11.9.1c4.5,3.2,11.6,3.7,15,8.1-1.3-.1-3.3.5-4.6.4a23.8,23.8,0,0,0,4.9,4c-.6.6-1.1,1.4-1.9,2.1,2.7,1.2,6.5,3.4,9.9,3.3-1.3,2.6-4.2,3.5-4.9,5.8,4.2.4,24.5,4.6,10.3,8.7,2.5,1.6,6.5,1.7,9.3,4.1,3.6,3,3.4,6.2,8.2,7a54.84,54.84,0,0,1-2.9,6c11.5,4.4,23.6,7.8,33.9,13.9-1.4.9-1.3,2-3.8,2-1.8,5.7,13.5,13.6,5.2,15.6,5.3,6.4,12.9,14.3,21.5,15.5-1.7,3.2-5.8,5.5-9.1,6.2,1.6,1.6,3.2,3.4,2.8,5.8-1.5.3-2.3,1.4-3.8,1.5,1.4,12.8,8.4,24,7.2,38.2-1.1,13.1-1.2,25.3-6.4,37-7,12.9-13.9,27.2-22.8,39.1-19.4,26.1-64.8,52.4-72.9,55.3-6.6,2.4-13.7,5.6-20.9,6a60.16,60.16,0,0,1-13.4-1.1c-3.4-.6-6.6-2.8-10.2-1.9-.8,5.4,1.7,8.6,2.8,13.1-12-.9-12.6-22.3-9.9-30.6,3.2-10.1,13.8-20.7,21.2-28.4,8.3-8.6,13.5-22.9,12.7-34.8-.7-9.8-7.8-31.8-19.5-33,.1.8-.3,1.9-.3,2.8-3.3.3-6.8,0-10.1.3-.3,2.9-.1,6.1-.4,9-2.6-.9-5.7-2.5-9-1.7.1,1.9-.5,4.3-.4,6-1.7-.6-4.1-1.4-5.8-1.9-.5,4.9.5,9.4-4.1,12.2-4.2-25.7-26-25-31-26.6.2,3,3.2,4.7,2.8,8-4.1,1.4-7-1.8-9.9-3.8-.3.6.7,5.1.8,5.6-3.6-1.9-8.5-7.2-12.3-8.7.4,5.9,8.9,13.3,14.2,15.4-3,5.7-7.1,2.8-11.9,3.3a19.1,19.1,0,0,1,1.6,2.7c-2.2,1.9-5.2,1.4-8,1.5-.2,4.1,6.1,4.1,3.2,8.9,2.1,1.8,5.2,2.2,7.7,3-3.3,4.9-8.8,3.1-14,3.6,1.5,3.6,14,17.8,1.1,15.5.6,3.5,11.8,9.5,1.1,10.3.5,4,5.8,5.1,9.1,5.2-3.2,4.7-12.4,7.7-17.4,5.2,1.3,1.1,2.1,3.3,2.8,4.8-4.5.4-13.1-1.8-16.3.1,1.6,4.1.6,8.5,2.9,12.3-3.2-.7-5.8-4.1-9-4.9-3,8.4,15.6,22.7,19.7,29.5,5.9,9.7,5.3,23.7-1.1,33.5-14.2,21.8-42.7,17.5-64.4,22.5-8.3,1.8-40.8,5.5-48.6,6.2-16.9,1.4-33.7-3.8-50.7-1.1-7.9,1.4-15,2.6-23.7,1.1-7.1-1.2-39.6,3.9-46.5,1.1-10.3-4.1-18.4-2-23.3,4.1.2-1.9,2-10.6,2.1-12.5-4.1-2-1.8-3.5-7.4-6.4a61.51,61.51,0,0,0-6.5,7.4c-1-3.6,2-10.1,1.9-12.6-.1-2.8-2.6-4-3-6.9-5.9-3.3-8.6,7.7-9.9,9-4.7-28.2,27.3-32.4,47.8-36,6.7-1.2,36.2-2.8,41.9-4.1,10.1-2.5,19.5-15.7,17.4-25.8-2.5,1.2-4,4.3-6.9,4-.5-4.1,1.6-8.4.7-12.2-1.6,1.6-2,4.5-2.9,6.8-.1-4.9-2.6-9.7-3-15.1s-.1-11.5,0-17.2c-1.5,2.7-1.9,5.2-3.2,7.6-4.6-11.9-.7-26.9-2.3-39.9a14.32,14.32,0,0,1-.9,1.9,26.08,26.08,0,0,0-2.8,0c.1-7.1,2.1-16.6,3-24.2-1.8,3.1-4.1,6.2-4.4,9.9-4-8-7.4-21.5-8.9-30.9-2-12.6.8-26.2-.4-39.1-2.6.4-10.9,13.1-13.9,16.3,2.3-3.5,5.5-13.2,2.7-17-3.4,1.9-6.3,5.2-9.1,7.7a14.21,14.21,0,0,0-6.2-7c-1.6,3.1-2.8,6.3-2.3,9.9-.6-3.3-1.3-7.1-3.4-9.9a17.32,17.32,0,0,0-3.7,1.1,73.39,73.39,0,0,1-5.6,21.5c-2.4-2.7-6.7-13.4-7-17.5l-6.2,5.2c-2.8-1.6-2.8-6-6-6.1-.2,2.6-.1,5.1-.1,7.8-1.5-2.3-3.1-4.7-3-7.6-2.4,1.9-2.6,4.7-2.1,7.6a36.69,36.69,0,0,0-4-4.6c-2,6-1.8,10.9-2.5,17.4-7-5.2-7.3-11.4-8.2-19.5-4.2,2.9-4,10.3-4.9,15.1,0-6.2-2.1-7.7-3.3-13-3.9,1.9-4.3,6.4-5.2,10.1-1.2-1.9-.8-5.3-1.1-8.1-2.9,2.4-5.3,12.9-6.2,17.4-4.1-4.6-2.9-12-2.8-18.2-2.2,2.3-4.9,5-8.2,4.6.1-1-.5-2.7-.4-3.8-4.4.2-5.6,7.5-7.2,10.9a89.73,89.73,0,0,0-.1-12.7c-3.7,2.5-5.9,9.2-5,13.8-2.1-4.3-2.1-10.8-2-15.8-6.3,2.6-4.9,6.9-5.4,12.7-3.7-2.9-6.3-9.3-10.1-11a13.81,13.81,0,0,1,.1,4c-1.5-2.6-2.5-5.4-4.5-7.8a63.62,63.62,0,0,1-.1,10.7c-2.9-2.9-7.2-8.8-7.3-13a1.35,1.35,0,0,0-1.7,0c.7,2.2,1.5,5.3.7,8-4-.7-6-5.6-8.9-8-2.6,4.8.4,8.9-.1,13.9-3.8-4.9-3.9-14.1-9.1-17.1-.4,1.3-1.5,1.9-1.5,3.8-2.8-2.3-4.5-6.7-6.9-9.1.4,1.2.3,3.7.7,5-3.7-1.2-6.4-5.9-10.1-6,.4.8.4,2.9.8,3.8a38.44,38.44,0,0,0-5.8-2.8,7,7,0,0,0,1.5,6.2c-4.6-1.4-7.3-5.5-10.7-8.3a7.52,7.52,0,0,1-1.5,5.7c-3.6-2.1-6.4-6-8.9-8.7a33.41,33.41,0,0,1,1.7,3.8c-3.1-2.4-6.7-6.5-11.1-5.8-.9,3.6,1.6,6.5.7,10.1-4.5-2.3-8.2-6.9-11.9-10.1a6.57,6.57,0,0,0,1.7,5.8c-8,.6-14.9-10.6-24.6-9.9.8.9,1.1,2.8,1.9,3.7a59.19,59.19,0,0,1-9-3.8c.1,1.5-.5,3.4-.4,4.9-5-2.9-8.8-9.9-14-13.2,1.2,4.1.8,9.2.9,14-4.2-5.4-7.5-11.8-13.2-16-1.3,4.9,4.9,9.3,2,13.1,4.6,1.3,2.7,4.5-1.1,4.6,1.7,4.5,3.4,9,9,10.3,0,2.5-2.2,3.8-4.9,4.1.9,2.4,3.4,4.1,5.7,4.9-.3.6-.9.7-1.2,1.1a4.35,4.35,0,0,1-3.3,6.4c3,5.5-.8,8-7.3,9.3a41.74,41.74,0,0,1-2.3,15.4c-2,5.6-4,7.9,2.9,11.7a9,9,0,0,1-8,4c.2,2,.1,3.3,1.7,4.8-2.6,2.7-6,2.1-9,3.6-.7,1.3-1.2,2.3-1.9,3.8,1.1,3.2,3.5,5.7,3.8,9-1.9-.8-3.3-.1-5.2-.4,2.2,5.2,13.6,27.3,13.1,31.7-1.5-.4-3.6.6-4.9.3.1,1-.5,2.7-.4,3.8-3.3.6-6.5,2.9-4.1,6.2-5.8.6-7.5-1.2-9.5,6.4-1.2,4.5-.4,9.5-.9,14.3-.7-.5-1.9-.5-2.6-.8.1,1.9-.5,4.1-.4,6-1.9-1-3.4-2.9-4.9-4.6-3,6.3-8.3,11.2-9.4,18.2-.9,6.3-1.1,21.2,6.1,23.1.1,3-3,3.4-5.7,3,2.8,2.2,6.3,4.8,7.8,7.8-3.1,3-10.4,5.4-14.6,6.2-48.9,9.2-105.7,6.6-112.5,6.5-5.9-.1-13-3.8-18.4-2.9-.3,2.6-.1,5.3-.4,7.9-5.7-1.1-5.1-6.8-8.1-10.2-2.7-2.9-9.6-4.3-13.3-7-2.1,2.5-4.4,4.5-2.5,9-7-1.5-5.4-12.8-11.1-15.1-1.1,3.1-.9,6.6-1.2,9.9-8.9-11.4-4.8-32.4,10.6-38.2l5.2-1.1c5.3-9,76.2-14.4,81.5-18.8s2.1-18,1.2-23.6c-2.6-16-4-28.5-13.1-42.5s-16.2-29.6-24.8-43.5c-7.7-12.3-19.7-22-26.5-34.6-1.1,2.6-.7,5.6-.7,8.6-3.7-6-5.7-13.1-9.7-18.9-2.9-4.4-7.8-14.9-14-14.6.8,3,1.2,7.2,2.8,10.2-2.7.9-5.2-1.6-8.1-2,2.6,3.7-4.1,5.8-2.4,11a20.55,20.55,0,0,1-9-.8c-1.2,4-.9,7.7-1.3,12.1-1-.2-2.7.6-3.8.3-.5,4.9-1.9,9.9-2.4,15.2-.6-.6-2.2-1.4-2.7-1.9a221.26,221.26,0,0,0-1.2,31.5,19.45,19.45,0,0,0-2-.5c-.4,2.9-.1,6.1-.4,9-.5.1-1.2.3-1.7.4.5,4.2,5.7,8.2,4.9,13.1-2-.2-3.7-.4-5.8-.7.1,4.8,3,8,4.9,12.2-1.9-1-4.1-2.5-6.1-3.7-.3,4,3.1,6.9,2,10.9-2.4-1-4.4-2-6.9-1.9a21.39,21.39,0,0,1,.8,5.8c-1-.1-2.7.5-3.8.4-2.4,4.4-.4,6.5-1.3,11-1.9,0-3.2,1.4-4.9,1.5a12.14,12.14,0,0,1,2.9,4.8c-2.1-.4-4.5-1.2-6.9-.7-.4,5,.1,10.2-.3,15.2-1.7-.2-3.9.6-5.8.3-.7,2.5,1.3,6.4.1,8.1-2,2.8-5.7,1.7-8.5,3.3,1.2,1.9,3.6,3.7,4.9,5.7-7.3,3.3-4.6,2.6-4.1,9.4-.5.1-1.2.3-1.7.4a6.72,6.72,0,0,1-.3,2.8c-4.2.4-8.7-.1-13.1.4,1.6,1.7,3.2,3.3,2.8,5.8a19.37,19.37,0,0,0-10.2,4.2c-.5.4.7,2.4-.1,2.9-.6.5-2.4.8-2.9,1.3-1.7,1.6-4.1-1.3-4.4,2.9-7.5.3-14.6,4.3-21.5,7.6,1.1,2.7,3.6,4.3,4,6.9-2.6.4-5.3.1-8,.4.6,1.9.2,3.3,1.9,4.8-3,.2-5.2-1.4-8-1.7,1.2,13-3.1,26.8-13.8,34.7-2.7,2-6.3,5-9.3,6.2-3.4,1.3-6.7-.3-9.9,2.5-2.2,2-2.9,4.8-5.6,6.8a41.88,41.88,0,0,1-10.1,5.2c-7.5,2.7-86.4,10.8-95.1,11.7-16.8,1.6-33.3-.8-49.7-2.1-11.8-1-34.6-1.5-37.2,14-3-2.8-2.4-8.3-2.1-12.1.4-5.1.9-5.3-2.3-9.1-4.9,3.4-7.6,8.7-7.3,16.3-5.4-3.1-5.4-19.7-1.7-24.2-5,4.9-8.1,10.9-12.6,15.8a46,46,0,0,1,1.3-13.9c3.2-10.5,16.6-21.2,24.4-29.4,12.7-13.2,32-6.2,47.8-9,8.1-1.3,16.5-1.7,24.8-3,8.6-1.3,12.7-3.6,20.4-7.4,8.2-4.2,11.8-10.2,16-18.2,2.4-4.4,19-22.5,25.6-61.2,2.6-15.6,6.2-27.9,6.2-44.5,0-15.5.7-33.6-2.1-48.6-1.2-6.9-2.8-14.1-4.1-20.7-1.1-6.2-4.1-15.9-3-22.4-.7,1.8-4.1,5.5-4.8,7.4,1.1-7.2,1.2-19.6-.8-26.4s-6.2-10.8-9-20.3c-2.1,5.3-1.4,8.3-3.4,11.9-4.2-3-2.9-11.6-5-16.2-1.6,4.4-4.7,6.8-5.2,11-6.2-17.1,2.7-43.8,5.2-61,1.5-10.5,6.1-17.4,5.2-28.9-.7-9-2.8-21.4-9-28.6-2.3,2.2-1.1,6.6-1.5,9.8-3.7-2.9-6.7-7.2-9.9-10.1-.8,2.8.4,5.5.7,8-4.8.7-5.2-5-10.1-3.8-.3,2.6,0,5.3-.3,8-4.9-1.2-5.6-7.7-10.1-8.1-.4,3.7.7,9.4-.9,12.2-2.3-3.7-3.5-8-4.6-12.2a13.39,13.39,0,0,0-3,8.1,1.35,1.35,0,0,1-1.7,0c-1.1-3.7-2.7-7.3-3.6-11.1-3.4,2.8-1.2,9.2-2.9,13-1.5-5.2-4.2-10-5.3-15-3.7-1-8.3,0-9.4,3.8-3.1-2-5.8-8.9-9.9-8,.1,1.9-.5,4.1-.4,6-3.6-3-10.2-12.8-16.2-11.1-.1,2.3-.3,4.6-.4,6.9-4.9-1.5-20.8-25.2-25.7-9.3-5.6-3.9-9.9-5.2-12.2,3.8-1.6-4.7-7.9-12.4-13.5-10.9.4,1.3-.6,3.6-.3,4.9-4.7,1.2-8.6-3.5-14.2-2.8.1,1.1-9.3,9.8-9,10.9-4.5-1-11.9-2.2-11.4,5.2-3.6-1.9-9.3-2.9-12.2,0,.4-.4,2.9-3-2.8,6.5-1.4,2.1-39.3,1.5-91.2,30.7-2.2,1.2-5.5,2.5-7.8,3.6-5.3,2.6-10.7,4.8-16,7.8-5.8,3.3-11.7,7.5-18.3,8.6-8.1,1.3-17.2-1.4-14.3-10.1,2-6.1,3.3-4.2-1.3-7.4-2.5-1.6-5.8-2.9-8.5-4.9a49.66,49.66,0,0,1-13.5-16.6c-3.5-7.3-6.2-8.9-13.4-13.4-2.8-1.8-5-2.9-7.8-5.6-1.4-1.4-5.4-3.8-6.2-6.2-2.2-6.9,7.2-12.2,11.4-16,5.1-4.5,9.3-10.2,13.4-15.5,9.7-12.3,16.5-27.4,24.8-40.5a58.67,58.67,0,0,0,8.2-42.7c-1.4-8.3-4.1-15.6-3.3-24.6.6-7.5,6-11.7,8.3-18.5,4.9-14.6,6-31,14.2-44.8,7.6-12.7,17-24.2,22-38,2.7-7.2,6-16.3,6-16.3s-13.6-15-17.6-20.7c-6.6-9.4-15.5-37.8,1.3-41.6,12.7-2.9,34.3,11.7,38.4,23.6,3.6-.4,18.3-18.1,22.5-22.5,4.5-4.5,36.4-21.7,49.4-25,13.4-3.4,65.9-10.5,67.2-11.3,1.7-1,2.6-7.1,3.4-9,6.1,1.4,8.8,2.3,15.4-.1,4.2-1.5,7.7-3.1,12.1-4.4,8.2-2.6,18.5-4,27-6,10.2-2.5,19.5-2.2,30.1-3.3,11.2-1.2,12.6-7.4,18.4-15.2,0,1.2,3.6,2.8,3.6,4,3-4.4,1.2-15.6,5.7-18.4,1.6,7.4,13.7,9.6,12.6.9l4.1-4.1c-1.4-3.2-2.9-8.1-.3-10.2,1.4,3.7,5.5,6.2,9.1,7.3-1.2-3.7-5.1-7.4-2.8-11.1,2,2.7,5.2,4.5,8.1,5.7,0-.9.4-2,.4-2.9a23,23,0,0,0,4.8,1.7c-3.2-3.5-5.2-11.1-4.8-16,1.9,2.9,6.6,4.5,9.9,4.6-.4-2.8-3.2-4.9-4.1-7.7,5.5,5.6,12.6,11.1,20.7,7.7-.5-4.9-6.9-11.4-9-16.2,1.9,4.5,8.6,3,13,3-4.5-3.6-5.8-7.3-8.6-10.5,4,3.8,10.5,4.3,15.8,4.2-3-2.2-3.4-5.2-4.9-8,3.7,3.5,7.5,7.4,13.1,6.9-1.5-3-3.2-6-4.9-9,2.3,3.7,11.7,4.6,14.6,10.7-1.3-4-3-9.2-2.9-13,3.4,2.6,8.5,5.5,10.2,9.9-.1-4.3,1.1-10.3-.9-14,4.6,3.3,7,10.3,11,13.1a18.82,18.82,0,0,0,1.5-8.1c3.4,1.6,4.3,6.2,3.8,9.9,1.8-7.4,1.5-13.8,2.3-21.2,4.6,4.7,9.4,18.3,6.1,24.4,7-1.5,5.2-9,9-12.2.5,4,0,8.2.4,12.2,3.4-.7,6.8-1.9,9.8-2.8-1.3,1.5-1.7,2.9-3.4,4.1,19.6.4,37.6-2.1,56.3,5.3,16.8,6.6,34.4,12.9,50.6,21.2a27,27,0,0,0-2.8.4c2.3,6.5,20.3,12.3,26.8,14.6,9.9,3.5,20,4.1,30.7,3.8-2.8,2.5-6.3,2.1-9.7,2.4,12.2,3.7,27.4,4,40.8,2.9,17.2-1.3,34.7-1.8,51.9-3,13-.9,49.4-5.7,55.8-7,4.3-.9,38.2-18,40.5-8.6,3.1-1.5,7.1-5.5,9.9-6-.1,1,.5,2.7.4,3.8,3.9-1.1,8.7-4.6,13.2-6.1,5.2-1.7,11-3.2,15.4-6.1a22.74,22.74,0,0,1-.7,2.8c9,5.1,27.6-1.4,37.1-2.9,13.2-2,93.4-8.8,99.2-9.3,6.1-.7,11.8-3.3,17.4-4,.1,2.2.3,4.7.4,7,10.6-2.4,24.4-8,34.6-4-1,.8-1.7,2.2-2.5,2.9,5.2,2.2,12.6,2.2,17.8,3,6.5,1,83.2,17,95.9,18.6,5,.7,32,6.8,29,11.4,6.8,2.1,14.6,2.1,20.8,5,3.2,1.6,5.4,4.8,9,5.6,3.4.9,6.8.1,10.2,1.2-.4.5-.3,1.8-.8,2.6,4.4,3.5,10.5,4,15.4,6.5a126.64,126.64,0,0,0,16.3,6.9c3.2,1.2,7.9,2.3,10.6,4.6,2.1,1.7,2.1,4.1,4.4,5.8,4.6,3.4,11.5,3.8,15.9,8.2-5.4,7.4,4.5,9.8,10.5,13.9,7.6,5.3,43.8,39.7,55.3,49.2,11.9,9.8,38,44.9,42.9,51.1,3.2,4.1,13.1,11.4,11.5,17.2-.5.1-1.2.3-1.7.4,1.8,4.6,6,8.3,7.9,12.5,1.2,2.8.3,5.1,2,8.1,1.2,2,3.3,3,4.6,5,3,4.9,4.1,9,9,13.2,4.1,3.7,9,6.6,3.2,11.4,3.9,4.1,15.3,12.6,14.2,18.7-11.4.7,15.4,20.7,11.7,26.8,3,3.7,10.2,11.8,9,16.7-1.5-.1-3.6.7-4.9.4,2.9,4.2,6.8,13.7,3.8,18.2-.5.1-1.2.3-1.7.4,2.5,6.9,13.2,15.8,11.1,23.5-5,1.5-2.9,3.5-3.7,6.4-.8,3.2,1.4,2.5-1.3,5.3-.9,1-3.3-.8-4.5.7-4.6,5.7,4.5,13.2,3.3,18.8a12,12,0,0,0-6.8,1.9c2,2.5,4.3,5.2,3.6,8.5-2-.3-3.7-.4-5.8-.7a68,68,0,0,0,.5,14.3c.6,4.8,4.6,9.3,4.2,14.3-4.4-1.2-7.2-6.8-12.1-6,.3,4,3.2,8,2.8,12.1a15.54,15.54,0,0,1-6.9-1.9c0,5.2,5.5,9.3,5.8,14.2C1491.73,496.4,1482.73,502.4,1482.63,503.6Z" transform="translate(-0.6 -8.3)"/></svg>
